<svg xmlns="http://www.w3.org/2000/svg" width="24" height="24" viewBox="0 0 24 24">
    <g fill="none" fill-rule="evenodd">
        <g fill-rule="nonzero" transform="translate(-435 -5)">
            <circle cx="447" cy="17" r="10" fill="#77B3D4"/>
            <path fill="#231F20" d="M446.292 14.545c-.138-1.499-1.792-2.234-1.862-2.264a.37.37 0 0 0-.21-.026c-1.911.3-2.198 1.35-2.21 1.393a.32.32 0 0 0 .007.184c2.279 6.677 7.014 7.915 8.571 8.322.12.031.219.057.294.08a.378.378 0 0 0 .26-.014c.048-.021 1.173-.522 1.448-2.154a.323.323 0 0 0-.034-.209c-.025-.045-.613-1.102-2.245-1.476a.368.368 0 0 0-.319.071c-.515.416-1.226.858-1.533.904-2.057-.95-3.205-2.773-3.249-3.118-.025-.195.446-.877.989-1.432a.328.328 0 0 0 .093-.261z"/>
            <path fill="#FFF" d="M446.051 14.295c-.13-1.499-1.692-2.234-1.758-2.264a.332.332 0 0 0-.198-.026c-1.803.3-2.074 1.35-2.085 1.393a.338.338 0 0 0 .006.184c2.15 6.677 6.62 7.915 8.09 8.322.113.031.206.057.277.08a.34.34 0 0 0 .246-.014c.045-.02 1.107-.522 1.367-2.154a.34.34 0 0 0-.033-.209c-.023-.045-.579-1.102-2.119-1.476a.333.333 0 0 0-.3.071c-.487.416-1.158.858-1.447.904-1.942-.95-3.026-2.773-3.067-3.118-.024-.195.421-.877.933-1.432a.34.34 0 0 0 .088-.261z"/>
        </g>
    </g>
</svg>
