<svg xmlns="http://www.w3.org/2000/svg" width="24" height="24" viewBox="0 0 24 24">
    <g fill="none" fill-rule="nonzero" transform="translate(-435 -42)">
        <circle cx="447" cy="54" r="10" fill="#76C2AF"/>
        <path fill="#231F20" d="M448 47.375c-2.934 0-5.313 2.35-5.313 5.25 0 4.594 5.313 7.875 5.313 7.875s5.313-3.2 5.313-7.875c0-2.9-2.379-5.25-5.313-5.25zm0 7.5a2.5 2.5 0 1 1 0-5 2.5 2.5 0 0 1 0 5z"/>
        <path fill="#FFF" d="M447.313 47c-2.935 0-5.313 2.35-5.313 5.25 0 4.594 5.313 7.875 5.313 7.875s5.312-3.2 5.312-7.875c0-2.9-2.378-5.25-5.313-5.25zm0 7.5a2.5 2.5 0 1 1 0-5 2.5 2.5 0 0 1 0 5z"/>
    </g>
</svg>
