<svg xmlns="http://www.w3.org/2000/svg" width="18" height="18" viewBox="0 0 18 18">
    <g fill="none" fill-rule="evenodd">
        <path d="M0 0h18v18H0z" opacity=".234"/>
        <path fill="#FA5E5B" d="M9 16A7 7 0 1 1 9 2a7 7 0 0 1 0 14zm0-1A6 6 0 1 0 9 3a6 6 0 0 0 0 12zm-.368-4.54L8.44 6.368 8.404 5h1.392l-.048 1.368-.192 4.092h-.924zm.468 2.724a.861.861 0 0 1-.642-.264.922.922 0 0 1-.258-.672c0-.272.086-.496.258-.672a.861.861 0 0 1 .642-.264c.256 0 .468.088.636.264.168.176.252.4.252.672a.934.934 0 0 1-.252.672.842.842 0 0 1-.636.264z"/>
    </g>
</svg>
